<svg width="398" height="340" viewBox="0 0 398 340" fill="none" xmlns="http://www.w3.org/2000/svg">
<path d="M398 298.787H0V299.015H398V298.787Z" fill="#EBEBEB"/>
<path d="M188.653 258.085H34.9532C33.7491 258.082 32.5951 257.532 31.7444 256.555C30.8938 255.578 30.416 254.254 30.416 252.874V5.16534C30.4265 3.79281 30.9089 2.48044 31.7584 1.5133C32.608 0.546156 33.756 0.00235122 34.9532 0H188.653C189.858 0 191.014 0.549012 191.867 1.52626C192.719 2.50351 193.198 3.82894 193.198 5.21097V252.874C193.198 254.256 192.719 255.581 191.867 256.558C191.014 257.536 189.858 258.085 188.653 258.085V258.085ZM34.9532 0.182522C33.8019 0.184939 32.6985 0.710978 31.8852 1.64518C31.0718 2.57937 30.615 3.8454 30.615 5.16534V252.874C30.615 254.194 31.0718 255.46 31.8852 256.394C32.6985 257.328 33.8019 257.854 34.9532 257.856H188.653C189.805 257.854 190.909 257.328 191.724 256.394C192.538 255.46 192.997 254.194 192.999 252.874V5.16534C192.997 3.84456 192.538 2.57856 191.724 1.64462C190.909 0.710682 189.805 0.184934 188.653 0.182522H34.9532Z" fill="#EBEBEB"/>
<path d="M360.835 258.085H207.127C205.922 258.082 204.768 257.532 203.916 256.556C203.064 255.579 202.584 254.255 202.582 252.874V5.16534C202.595 3.79198 203.079 2.47962 203.93 1.51273C204.78 0.545837 205.929 0.00232558 207.127 0H360.835C362.031 0.00474965 363.177 0.549615 364.024 1.5165C364.872 2.48339 365.354 3.79438 365.364 5.16534V252.874C365.364 254.252 364.887 255.575 364.038 256.552C363.189 257.529 362.037 258.08 360.835 258.085V258.085ZM207.127 0.182522C205.975 0.184934 204.871 0.710682 204.056 1.64462C203.242 2.57856 202.783 3.84456 202.781 5.16534V252.874C202.783 254.194 203.242 255.46 204.056 256.394C204.871 257.328 205.975 257.854 207.127 257.856H360.835C361.987 257.854 363.091 257.328 363.906 256.394C364.72 255.46 365.179 254.194 365.181 252.874V5.16534C365.179 3.84456 364.72 2.57856 363.906 1.64462C363.091 0.710682 361.987 0.184934 360.835 0.182522H207.127Z" fill="#EBEBEB"/>
<path d="M358.12 313.471H337.424V313.699H358.12V313.471Z" fill="#EBEBEB"/>
<path d="M283.401 315.952H247.557V316.18H283.401V315.952Z" fill="#EBEBEB"/>
<path d="M336.627 305.002H288.238V305.23H336.627V305.002Z" fill="#EBEBEB"/>
<path d="M57.0649 306.534H41.7578V306.762H57.0649V306.534Z" fill="#EBEBEB"/>
<path d="M108.169 306.534H64.1582V306.762H108.169V306.534Z" fill="#EBEBEB"/>
<path d="M194.335 310.386H135.057V310.614H194.335V310.386Z" fill="#EBEBEB"/>
<path d="M301.359 294.114H307.727V159.003H301.359V294.114Z" fill="#F0F0F0"/>
<path d="M270.798 298.769H306.053V294.105H270.798V298.769Z" fill="#F0F0F0"/>
<path d="M301.365 158.994H269.111V294.105H301.365V158.994Z" fill="#F5F5F5"/>
<path d="M297.927 229.355H272.551V253.485H297.927V229.355Z" fill="#F0F0F0"/>
<path d="M297.927 260.932H272.551V285.061H297.927V260.932Z" fill="#F0F0F0"/>
<path d="M281.855 243.072H288.613C289.132 243.072 289.553 242.59 289.553 241.995V240.836C289.553 240.242 289.132 239.76 288.613 239.76H281.855C281.337 239.76 280.916 240.242 280.916 240.836V241.995C280.916 242.59 281.337 243.072 281.855 243.072Z" fill="#F5F5F5"/>
<path d="M281.855 274.648H288.613C289.132 274.648 289.553 274.166 289.553 273.572V272.413C289.553 271.818 289.132 271.336 288.613 271.336H281.855C281.337 271.336 280.916 271.818 280.916 272.413V273.572C280.916 274.166 281.337 274.648 281.855 274.648Z" fill="#F5F5F5"/>
<path d="M297.927 166.45H272.551V190.579H297.927V166.45Z" fill="#F0F0F0"/>
<path d="M297.927 197.771H272.551V221.9H297.927V197.771Z" fill="#F0F0F0"/>
<path d="M281.855 180.166H288.613C289.132 180.166 289.553 179.684 289.553 179.089V177.93C289.553 177.335 289.132 176.853 288.613 176.853H281.855C281.337 176.853 280.916 177.335 280.916 177.93V179.089C280.916 179.684 281.337 180.166 281.855 180.166Z" fill="#F5F5F5"/>
<path d="M281.855 211.496H288.613C289.132 211.496 289.553 211.014 289.553 210.419V209.26C289.553 208.665 289.132 208.183 288.613 208.183H281.855C281.337 208.183 280.916 208.665 280.916 209.26V210.419C280.916 211.014 281.337 211.496 281.855 211.496Z" fill="#F5F5F5"/>
<path d="M336.66 294.114H355.764V159.003H336.66V294.114Z" fill="#F0F0F0"/>
<path d="M306.077 298.769H353.797V294.105H306.077V298.769Z" fill="#F0F0F0"/>
<path d="M336.66 158.994H304.406V294.105H336.66V158.994Z" fill="#F5F5F5"/>
<path d="M333.222 229.355H307.846V253.485H333.222V229.355Z" fill="#F0F0F0"/>
<path d="M333.222 260.932H307.846V285.061H333.222V260.932Z" fill="#F0F0F0"/>
<path d="M317.15 243.072H323.908C324.427 243.072 324.848 242.59 324.848 241.995V240.836C324.848 240.242 324.427 239.76 323.908 239.76H317.15C316.632 239.76 316.211 240.242 316.211 240.836V241.995C316.211 242.59 316.632 243.072 317.15 243.072Z" fill="#F5F5F5"/>
<path d="M317.15 274.648H323.908C324.427 274.648 324.848 274.166 324.848 273.572V272.413C324.848 271.818 324.427 271.336 323.908 271.336H317.15C316.632 271.336 316.211 271.818 316.211 272.413V273.572C316.211 274.166 316.632 274.648 317.15 274.648Z" fill="#F5F5F5"/>
<path d="M333.222 166.45H307.846V190.579H333.222V166.45Z" fill="#F0F0F0"/>
<path d="M333.222 197.771H307.846V221.9H333.222V197.771Z" fill="#F0F0F0"/>
<path d="M317.15 180.166H323.908C324.427 180.166 324.848 179.684 324.848 179.089V177.93C324.848 177.335 324.427 176.853 323.908 176.853H317.15C316.632 176.853 316.211 177.335 316.211 177.93V179.089C316.211 179.684 316.632 180.166 317.15 180.166Z" fill="#F5F5F5"/>
<path d="M317.15 211.496H323.908C324.427 211.496 324.848 211.014 324.848 210.419V209.26C324.848 208.665 324.427 208.183 323.908 208.183H317.15C316.632 208.183 316.211 208.665 316.211 209.26V210.419C316.211 211.014 316.632 211.496 317.15 211.496Z" fill="#F5F5F5"/>
<path d="M232.933 130.795L340.162 130.795V22.8703L232.933 22.8703V130.795Z" fill="#E6E6E6"/>
<path d="M221.44 18.6719H347.104C347.387 18.6719 347.658 18.8007 347.858 19.0301C348.058 19.2594 348.171 19.5704 348.171 19.8948C348.169 20.2175 348.055 20.5262 347.855 20.7536C347.656 20.981 347.386 21.1085 347.104 21.1085H221.44C221.159 21.1061 220.891 20.9775 220.693 20.7504C220.495 20.5233 220.383 20.2159 220.381 19.8948C220.381 19.572 220.492 19.2623 220.69 19.0333C220.889 18.8042 221.158 18.6743 221.44 18.6719Z" fill="#E6E6E6"/>
<path d="M228.388 130.795L338.045 130.795V22.8703L228.388 22.8703V130.795Z" fill="#F0F0F0"/>
<path d="M232.935 130.795H340.164V134.254H229.799L232.935 130.795Z" fill="#E6E6E6"/>
<path d="M220.802 130.795H330.459L327.323 134.254H217.666L220.802 130.795Z" fill="#F0F0F0"/>
<path d="M331.67 123.494V30.1709L234.757 30.1709V123.494H331.67Z" fill="#FAFAFA"/>
<path d="M309.668 123.494L272.28 30.1709H254.633L292.021 123.494H309.668Z" fill="white"/>
<path d="M288.233 123.494L250.844 30.1709H243.959L281.347 123.494H288.233Z" fill="white"/>
<path d="M235.561 123.494V30.1709H234.749V123.494H235.561Z" fill="#E6E6E6"/>
<g opacity="0.4">
<path opacity="0.4" d="M331.59 105.543H342.551V16.4819H331.59V105.543Z" fill="#F0F0F0"/>
<path opacity="0.4" d="M327.322 105.543H335.863V16.4819H327.322V105.543Z" fill="#E6E6E6"/>
<path opacity="0.4" d="M320.637 105.543H331.598V16.4819H320.637V105.543Z" fill="#F0F0F0"/>
<path opacity="0.4" d="M316.361 105.543H324.902V16.4819H316.361V105.543Z" fill="#E6E6E6"/>
<path opacity="0.4" d="M309.668 105.543H320.629V16.4819H309.668V105.543Z" fill="#F0F0F0"/>
</g>
<g opacity="0.4">
<path opacity="0.4" d="M238.83 105.543H245.15V16.4819H238.83V105.543Z" fill="#F0F0F0"/>
<path opacity="0.4" d="M236.372 105.543H241.291V16.4819H236.372V105.543Z" fill="#E6E6E6"/>
<path opacity="0.4" d="M232.512 105.543H238.832V16.4819H232.512V105.543Z" fill="#F0F0F0"/>
<path opacity="0.4" d="M230.059 105.543H234.979V16.4819H230.059V105.543Z" fill="#E6E6E6"/>
<path opacity="0.4" d="M226.192 105.543H232.512V16.4819H226.192V105.543Z" fill="#F0F0F0"/>
</g>
<path d="M130.721 88.2481H145.892L144.101 44.1328H130.721V88.2481Z" fill="#F5F5F5"/>
<path d="M154.464 90.6309L157.735 110.224H154.464L134.396 90.6309H154.464Z" fill="#F5F5F5"/>
<path d="M157.735 90.6309V110.224L137.668 90.6309H157.735Z" fill="#E6E6E6"/>
<path d="M75.7644 90.6309L79.036 110.224H75.7644L55.6973 90.6309H75.7644Z" fill="#F5F5F5"/>
<path d="M79.034 90.6309V110.224L58.9668 90.6309H79.034Z" fill="#E6E6E6"/>
<path d="M172.469 88.3125H150.643V91.1416H172.469V88.3125Z" fill="#E6E6E6"/>
<path d="M42.1318 91.1416L150.643 91.1416V88.3125L42.1318 88.3125V91.1416Z" fill="#F5F5F5"/>
<path d="M108.422 88.2494H140.994L145.022 34.7891H112.45L108.422 88.2494Z" fill="#E6E6E6"/>
<path d="M106.736 88.2494H139.309L143.336 34.7891H110.764L106.736 88.2494Z" fill="#F0F0F0"/>
<path d="M136.578 82.3261L140.263 40.7021H113.502L109.816 82.3261H136.578Z" fill="white"/>
<path d="M93.8398 88.2488H104.291L103.058 57.8682H93.8398V88.2488Z" fill="#E0E0E0"/>
<path d="M78.4941 88.249H100.917L103.696 51.4346H81.2642L78.4941 88.249Z" fill="#F0F0F0"/>
<path d="M77.332 88.249H99.7633L102.533 51.4346H80.1021L77.332 88.249Z" fill="#F5F5F5"/>
<path d="M97.8747 84.1694L100.406 55.5137H81.9865L79.4473 84.1694H97.8747Z" fill="#E0E0E0"/>
<path d="M208.839 165.583C208.913 166.603 208.722 167.626 208.289 168.521C207.856 169.417 207.201 170.145 206.407 170.614C205.613 171.082 204.716 171.27 203.828 171.154C202.941 171.038 202.104 170.622 201.423 169.96C200.742 169.298 200.247 168.419 200.002 167.435C199.756 166.45 199.771 165.404 200.045 164.429C200.318 163.455 200.837 162.595 201.537 161.959C202.237 161.323 203.085 160.939 203.976 160.856C204.566 160.799 205.16 160.877 205.724 161.084C206.288 161.292 206.81 161.624 207.262 162.063C207.714 162.502 208.086 163.039 208.356 163.643C208.627 164.247 208.791 164.906 208.839 165.583V165.583Z" fill="#E0E0E0"/>
<path d="M217.222 168.284C217.296 169.305 217.105 170.327 216.672 171.223C216.239 172.118 215.584 172.847 214.79 173.315C213.996 173.784 213.099 173.972 212.211 173.855C211.324 173.739 210.487 173.324 209.806 172.661C209.124 171.999 208.63 171.12 208.385 170.136C208.139 169.151 208.154 168.106 208.427 167.131C208.701 166.156 209.22 165.296 209.92 164.66C210.62 164.024 211.468 163.64 212.358 163.557C213.55 163.446 214.731 163.881 215.643 164.768C216.555 165.654 217.123 166.919 217.222 168.284V168.284Z" fill="#E0E0E0"/>
<path d="M223.279 165.181C223.352 166.202 223.159 167.223 222.725 168.118C222.291 169.012 221.636 169.739 220.841 170.206C220.047 170.674 219.15 170.86 218.263 170.743C217.376 170.625 216.539 170.209 215.859 169.546C215.179 168.884 214.685 168.005 214.44 167.02C214.196 166.036 214.211 164.99 214.485 164.016C214.759 163.042 215.278 162.183 215.978 161.547C216.677 160.911 217.526 160.528 218.416 160.445C219.608 160.336 220.789 160.774 221.701 161.662C222.612 162.549 223.18 163.815 223.279 165.181V165.181Z" fill="#E0E0E0"/>
<path d="M229.67 167.116C229.741 168.134 229.547 169.153 229.113 170.045C228.68 170.936 228.025 171.66 227.232 172.125C226.44 172.591 225.545 172.776 224.66 172.659C223.775 172.541 222.941 172.125 222.262 171.464C221.584 170.803 221.091 169.927 220.847 168.945C220.602 167.963 220.617 166.921 220.89 165.949C221.162 164.976 221.679 164.119 222.376 163.484C223.074 162.848 223.919 162.464 224.807 162.38C225.397 162.324 225.992 162.402 226.557 162.61C227.121 162.817 227.644 163.151 228.096 163.591C228.548 164.031 228.919 164.569 229.19 165.174C229.46 165.779 229.623 166.439 229.67 167.116Z" fill="#E0E0E0"/>
<path d="M235.409 167.919C235.409 167.919 234.883 182.283 214.76 182.283C194.638 182.283 194.064 167.919 194.064 167.919H235.409Z" fill="#F0F0F0"/>
<path d="M47.6633 298.787H54.9785L54.9785 182.311H47.6633L47.6633 298.787Z" fill="#E6E6E6"/>
<path d="M45.7132 298.787H50.0195L50.0195 182.311H45.7132L45.7132 298.787Z" fill="#F0F0F0"/>
<path d="M148.223 182.311H44.377V191.044H148.223V182.311Z" fill="#F0F0F0"/>
<path d="M246.57 298.787H253.885V182.311H246.57V298.787Z" fill="#E6E6E6"/>
<path d="M245.201 298.787H249.508V182.311H245.201V298.787Z" fill="#F0F0F0"/>
<path d="M255.19 182.311H151.344V191.044H255.19V182.311Z" fill="#E6E6E6"/>
<path d="M148.835 298.787H156.15V182.311H148.835V298.787Z" fill="#E6E6E6"/>
<path d="M146.885 298.787H151.191V182.311H146.885V298.787Z" fill="#F0F0F0"/>
<path d="M172.844 143.571H118.628L108.965 180.276H163.188L172.844 143.571Z" fill="#E6E6E6"/>
<path d="M163.188 180.275L162.974 182.311H108.75L108.965 180.275H163.188Z" fill="#E6E6E6"/>
<path d="M171.18 143.571H116.956L107.301 180.276H161.516L171.18 143.571Z" fill="#F0F0F0"/>
<path d="M160.459 178.606L169.231 145.25H118.024L109.244 178.606H160.459Z" fill="white"/>
<path d="M147.396 180.275L147.173 182.311H87.4648L87.6798 180.275H147.396Z" fill="#F0F0F0"/>
<path d="M199.001 340C284.238 340 353.337 335.375 353.337 329.67C353.337 323.964 284.238 319.339 199.001 319.339C113.763 319.339 44.6641 323.964 44.6641 329.67C44.6641 335.375 113.763 340 199.001 340Z" fill="#F5F5F5"/>
<path d="M300.53 49.4168H208.919C205.776 49.476 202.766 50.8758 200.476 53.343C198.186 55.8101 196.78 59.1673 196.533 62.7591L182.284 314.236C182.168 315.949 182.364 317.67 182.86 319.291C183.356 320.911 184.141 322.396 185.164 323.65C186.188 324.904 187.428 325.901 188.805 326.575C190.183 327.25 191.668 327.589 193.166 327.57H284.809C287.951 327.513 290.961 326.115 293.251 323.649C295.542 321.183 296.948 317.827 297.195 314.236L307.416 133.486C307.85 133.312 308.231 132.998 308.513 132.582C308.796 132.166 308.967 131.666 309.008 131.141L310.838 98.7978C310.87 98.2954 310.759 97.7946 310.52 97.3714C310.282 96.9482 309.93 96.6256 309.517 96.4524L311.42 62.7591C311.536 61.0455 311.339 59.323 310.843 57.7012C310.347 56.0794 309.562 54.5937 308.538 53.3387C307.513 52.0838 306.272 51.087 304.894 50.4117C303.515 49.7365 302.029 49.3977 300.53 49.4168Z" fill="#006C96"/>
<path d="M189.113 114.531H190.912C191.469 114.519 192.002 114.271 192.408 113.834C192.814 113.398 193.064 112.803 193.109 112.167L193.905 98.6607C193.925 98.3568 193.89 98.0515 193.801 97.7641C193.713 97.4768 193.573 97.2136 193.391 96.9914C193.209 96.7692 192.989 96.5927 192.745 96.4731C192.5 96.3536 192.237 96.2936 191.971 96.297H190.18C189.623 96.3064 189.089 96.554 188.682 96.9912C188.276 97.4284 188.027 98.0237 187.983 98.6607L187.187 112.167C187.167 112.47 187.202 112.775 187.29 113.062C187.378 113.348 187.517 113.611 187.698 113.833C187.879 114.055 188.098 114.232 188.342 114.352C188.586 114.472 188.848 114.533 189.113 114.531V114.531Z" fill="#006C96"/>
<path d="M187.753 138.642H189.544C190.103 138.631 190.638 138.382 191.046 137.943C191.453 137.505 191.704 136.908 191.749 136.269L192.545 122.772C192.565 122.468 192.53 122.163 192.441 121.875C192.353 121.588 192.213 121.325 192.031 121.103C191.85 120.88 191.629 120.704 191.385 120.584C191.14 120.465 190.877 120.405 190.611 120.408H188.82C188.262 120.418 187.727 120.665 187.319 121.102C186.912 121.539 186.661 122.134 186.615 122.772L185.819 136.269C185.797 136.574 185.831 136.881 185.918 137.17C186.006 137.459 186.145 137.724 186.327 137.948C186.509 138.171 186.73 138.349 186.976 138.468C187.222 138.588 187.487 138.647 187.753 138.642V138.642Z" fill="#006C96"/>
<path d="M279.938 327.569H188.326C186.828 327.589 185.343 327.25 183.965 326.575C182.588 325.9 181.348 324.904 180.324 323.65C179.301 322.396 178.516 320.911 178.02 319.291C177.525 317.67 177.328 315.949 177.445 314.236L191.661 62.759C191.91 59.1664 193.318 55.8091 195.609 53.3422C197.901 50.8752 200.912 49.4757 204.055 49.4167H295.659C297.157 49.3989 298.642 49.7386 300.02 50.4144C301.397 51.0902 302.637 52.0872 303.661 53.342C304.684 54.5969 305.468 56.0821 305.964 57.7033C306.46 59.3245 306.656 61.0462 306.54 62.759L292.323 314.236C292.076 317.827 290.67 321.183 288.379 323.649C286.089 326.115 283.079 327.512 279.938 327.569V327.569Z" fill="#263238"/>
<path opacity="0.2" d="M240.358 316.876C243.567 313.315 243.809 307.632 240.898 304.185C237.987 300.737 233.026 300.83 229.817 304.392C226.607 307.953 226.366 313.636 229.277 317.083C232.188 320.531 237.149 320.438 240.358 316.876Z" fill="white"/>
<path d="M288.215 294.926H184.075C183.72 294.925 183.369 294.842 183.044 294.68C182.719 294.518 182.426 294.281 182.183 293.984C181.941 293.688 181.754 293.337 181.635 292.954C181.515 292.572 181.465 292.165 181.488 291.759L193.675 76.0923C193.728 75.3474 194.024 74.6528 194.503 74.1459C194.982 73.6389 195.61 73.3565 196.262 73.3545H300.41C300.765 73.3549 301.116 73.4386 301.441 73.6005C301.766 73.7624 302.059 73.9991 302.302 74.2958C302.544 74.5926 302.731 74.9432 302.85 75.3259C302.97 75.7087 303.02 76.1155 302.997 76.5212L290.802 292.142C290.76 292.896 290.469 293.603 289.989 294.12C289.508 294.637 288.874 294.925 288.215 294.926V294.926Z" fill="white"/>
<path opacity="0.2" d="M259.159 209.922C270.808 196.993 271.685 176.367 261.118 163.852C250.55 151.336 232.54 151.671 220.891 164.6C209.242 177.529 208.365 198.155 218.933 210.671C229.5 223.186 247.51 222.851 259.159 209.922Z" fill="#006C96"/>
<path opacity="0.2" d="M237.208 237.514C213.034 237.514 194.638 214.963 196.207 187.248C197.775 159.532 218.709 136.981 242.892 136.981C267.074 136.981 285.462 159.532 283.894 187.248C282.326 214.963 261.359 237.514 237.208 237.514ZM242.78 137.894C219.044 137.894 198.483 160.034 196.947 187.248C195.411 214.462 213.464 236.601 237.201 236.601C260.937 236.601 281.498 214.462 283.042 187.248C284.586 160.034 266.549 137.894 242.78 137.894Z" fill="#006C96"/>
<path d="M233.229 203.045L230.841 197.761C225.667 186.253 213.751 175.968 209.588 172.975L213.52 166.231C218.447 169.771 228.294 178.542 234.471 188.964C245.893 173.449 262.036 157.47 283.648 140.23L287.333 146.619C264.249 165.035 247.637 181.873 236.588 198.099L233.229 203.045Z" fill="#006C96"/>
<path opacity="0.2" d="M232.099 63.7725C233.398 62.3317 233.493 60.0305 232.313 58.6327C231.133 57.2349 229.123 57.2697 227.825 58.7105C226.527 60.1513 226.431 62.4525 227.612 63.8503C228.792 65.2482 230.801 65.2133 232.099 63.7725Z" fill="white"/>
<path opacity="0.2" d="M241.117 57.6028H267.456C267.866 57.5973 268.271 57.69 268.648 57.8749C269.024 58.0599 269.362 58.333 269.641 58.6767C269.92 59.0205 270.133 59.4272 270.267 59.8709C270.4 60.3146 270.452 60.7854 270.417 61.2532V61.2532C270.352 62.2341 269.97 63.1519 269.346 63.827C268.722 64.5021 267.9 64.886 267.042 64.9036H240.711C240.301 64.9076 239.896 64.8139 239.519 64.6286C239.143 64.4432 238.805 64.1703 238.526 63.827C238.247 63.4838 238.033 63.0777 237.898 62.6346C237.763 62.1915 237.709 61.7211 237.741 61.2532V61.2532C237.807 60.2722 238.189 59.3545 238.813 58.6794C239.437 58.0043 240.259 57.6204 241.117 57.6028Z" fill="white"/>
<path d="M143.073 125.026C141.728 126.605 140.287 128.348 138.958 130.082C137.629 131.816 136.299 133.596 135.05 135.421C133.8 137.246 132.662 139.071 131.484 140.997L130.688 142.43L129.892 143.881C129.629 144.365 129.39 144.857 129.159 145.359L128.522 146.701C128.263 147.468 128.115 148.279 128.085 149.101C128.021 150.158 128.021 151.219 128.085 152.277C128.241 154.558 128.506 156.828 128.881 159.076C129.231 161.375 129.677 163.684 130.146 165.984C130.616 168.284 131.133 170.611 131.659 172.874L128.713 174.143C126.904 169.679 125.387 165.067 124.176 160.344C123.561 157.91 123.091 155.431 122.767 152.925C122.606 151.588 122.524 150.24 122.521 148.891C122.502 147.301 122.737 145.721 123.213 144.228C123.396 143.717 123.492 143.516 123.619 143.206L123.985 142.339C124.224 141.764 124.471 141.189 124.781 140.632L125.577 138.953L126.421 137.319C127.545 135.167 128.77 133.087 130.091 131.086C131.396 129.088 132.749 127.144 134.174 125.264C135.599 123.384 137.04 121.613 138.695 119.788L143.073 125.026Z" fill="#B55B52"/>
<path d="M143.416 114.075C139.101 114.294 135.002 122.508 135.002 122.508L140.701 135.841C140.701 135.841 148.423 128.467 148.518 121.239C148.582 116.503 147.658 113.847 143.416 114.075Z" fill="#006C96"/>
<path opacity="0.7" d="M143.416 114.075C139.101 114.294 135.002 122.508 135.002 122.508L140.701 135.841C140.701 135.841 148.423 128.467 148.518 121.239C148.582 116.503 147.658 113.847 143.416 114.075Z" fill="white"/>
<path opacity="0.2" d="M144.44 123.657C143.183 125.838 142.578 131.496 142.387 134.015C144.286 131.897 145.896 129.464 147.163 126.796C146.311 124.359 145.268 122.224 144.44 123.657Z" fill="black"/>
<path d="M130.805 171.486L136.051 173.312L132.556 177.364C132.556 177.364 128.775 176.022 128.25 173.074L130.805 171.486Z" fill="#B55B52"/>
<path d="M139.227 177.902L138.344 181.781L132.557 177.327L136.051 173.275L139.227 177.902Z" fill="#B55B52"/>
<path d="M173.742 98.2419C173.575 98.7803 173.694 99.3279 174.004 99.4556C174.315 99.5834 174.697 99.264 174.856 98.7255C175.015 98.1871 174.904 97.6304 174.593 97.5027C174.283 97.3749 173.909 97.6943 173.742 98.2419Z" fill="#263238"/>
<path d="M174.451 97.4746L175.701 97.5933C175.701 97.5933 174.809 98.3507 174.451 97.4746Z" fill="#263238"/>
<path d="M173.98 98.9346C174.027 100.354 174.242 101.76 174.617 103.114C174.313 103.205 173.996 103.22 173.687 103.157C173.378 103.094 173.084 102.955 172.826 102.749L173.98 98.9346Z" fill="#A02724"/>
<path d="M175.286 96.1338C175.229 96.1247 175.176 96.0965 175.134 96.0525C175.091 96.0086 175.061 95.9511 175.047 95.8874C174.96 95.4748 174.792 95.0904 174.556 94.7632C174.321 94.4359 174.023 94.1744 173.686 93.9983C173.614 93.9674 173.555 93.9051 173.522 93.8249C173.489 93.7447 173.485 93.6529 173.511 93.5693C173.523 93.5275 173.543 93.4889 173.569 93.456C173.595 93.4231 173.626 93.3964 173.661 93.3777C173.696 93.3589 173.734 93.3484 173.772 93.3469C173.811 93.3453 173.849 93.3527 173.885 93.3686C174.318 93.5844 174.701 93.9141 175.003 94.3311C175.304 94.7481 175.516 95.2406 175.62 95.7687C175.63 95.8119 175.632 95.8568 175.626 95.9008C175.621 95.9448 175.607 95.9871 175.587 96.0253C175.567 96.0635 175.541 96.0967 175.51 96.1232C175.479 96.1496 175.443 96.1687 175.405 96.1794L175.286 96.1338Z" fill="#263238"/>
<path d="M157.393 100.532C157.504 104.849 157.122 112.615 154.209 114.814C154.209 114.814 154.599 119.25 161.373 120.756C168.816 122.407 165.536 117.333 165.536 117.333C161.636 115.326 162.233 111.912 163.403 108.846L157.393 100.532Z" fill="#B55B52"/>
<path d="M179.512 130.073C180.181 132.163 180.945 134.426 181.757 136.571C182.569 138.716 183.349 140.888 184.296 142.959C185.244 145.031 186.167 147.112 187.17 149.128C187.687 150.123 188.205 151.118 188.762 152.067C189.033 152.56 189.311 153.034 189.606 153.482L190.035 154.175L190.25 154.531L190.362 154.704L190.433 154.796C190.951 155.471 191.545 156.063 192.201 156.557C192.99 157.175 193.808 157.741 194.652 158.254C196.396 159.331 198.266 160.308 200.169 161.23C202.071 162.151 204.013 163.055 205.979 163.849C207.945 164.643 209.959 165.482 211.894 166.258L211.153 169.772C206.887 168.954 202.673 167.817 198.537 166.368C196.419 165.627 194.341 164.746 192.312 163.73C191.248 163.189 190.212 162.579 189.208 161.905C188.043 161.143 186.987 160.18 186.079 159.048L185.888 158.802L185.753 158.61L185.49 158.236L184.965 157.47C184.607 156.968 184.264 156.457 183.946 155.936C183.269 154.905 182.649 153.847 182.036 152.779C180.828 150.661 179.715 148.474 178.7 146.226C177.69 143.99 176.734 141.736 175.859 139.437C174.983 137.137 174.195 134.874 173.471 132.355L179.512 130.073Z" fill="#B55B52"/>
<path d="M210.843 166.24L215.539 164.159L215.308 170.374C215.308 170.374 211.503 171.533 209.736 169.334L210.843 166.24Z" fill="#B55B52"/>
<path d="M219.082 166.295L220.69 170.265L215.309 170.374L215.539 164.159L219.082 166.295Z" fill="#B55B52"/>
<path d="M141.193 322.049L147.41 322.578L149.257 306.215L143.04 305.686L141.193 322.049Z" fill="#B55B52"/>
<path d="M91.9531 285.033L96.0127 290.563L108.064 281.684L104.005 276.153L91.9531 285.033Z" fill="#B55B52"/>
<path d="M97.9071 289.851L94.6355 282.642C94.5835 282.516 94.4931 282.418 94.3816 282.364C94.27 282.31 94.1451 282.305 94.0306 282.35L88.8327 284.412C88.7023 284.472 88.5844 284.563 88.4869 284.68C88.3895 284.796 88.3146 284.934 88.2672 285.086C88.2198 285.238 88.201 285.399 88.2121 285.56C88.2231 285.721 88.2637 285.877 88.3312 286.018C89.5093 288.51 90.1859 289.669 91.6187 292.817C92.5102 294.761 93.6326 297.718 94.8505 300.41C96.0683 303.102 98.3927 301.907 98.0902 300.657C96.7211 295.081 97.6285 293.538 98.0902 291.12C98.1558 290.685 98.0913 290.238 97.9071 289.851Z" fill="#263238"/>
<path d="M147.8 321.565H140.812C140.691 321.563 140.574 321.611 140.482 321.699C140.39 321.788 140.329 321.912 140.31 322.048L139.371 328.382C139.351 328.54 139.362 328.7 139.401 328.853C139.441 329.006 139.509 329.148 139.6 329.268C139.691 329.388 139.804 329.485 139.931 329.55C140.057 329.616 140.195 329.65 140.334 329.65C142.778 329.605 143.948 329.44 147.02 329.44C148.915 329.44 152.815 329.668 155.426 329.668C158.037 329.668 158.244 326.712 157.161 326.438C152.314 325.242 150.435 323.581 148.827 322.003C148.544 321.717 148.178 321.561 147.8 321.565V321.565Z" fill="#263238"/>
<path opacity="0.2" d="M149.257 306.215L148.23 315.313L142.037 314.601L143.04 305.694L149.257 306.215Z" fill="black"/>
<path opacity="0.2" d="M104.005 276.153L108.065 281.684L103.074 285.361L98.8633 279.941L104.005 276.153Z" fill="black"/>
<path d="M141.688 157.469L166.618 163.009C178.399 123.247 175.581 121.942 175.581 121.942C173.75 120.807 171.86 119.801 169.922 118.93L169.579 118.784C167.987 118.118 167.653 118.017 165.52 117.306C161.842 116.311 158.427 115.48 154.201 114.796L153.405 114.668C152.609 114.559 151.876 114.467 151.144 114.385C150.65 114.321 150.157 114.285 149.687 114.248L148.095 114.148C145.373 113.993 143.423 114.038 143.423 114.038C144.792 138.87 143.749 146.016 141.688 157.469Z" fill="#006C96"/>
<path opacity="0.7" d="M141.688 157.469L166.618 163.009C178.399 123.247 175.581 121.942 175.581 121.942C173.75 120.807 171.86 119.801 169.922 118.93L169.579 118.784C167.987 118.118 167.653 118.017 165.52 117.306C161.842 116.311 158.427 115.48 154.201 114.796L153.405 114.668C152.609 114.559 151.876 114.467 151.144 114.385C150.65 114.321 150.157 114.285 149.687 114.248L148.095 114.148C145.373 113.993 143.423 114.038 143.423 114.038C144.792 138.87 143.749 146.016 141.688 157.469Z" fill="white"/>
<path opacity="0.2" d="M171.999 131.223L169.746 130.803C169.746 134.207 170.876 140.047 171.975 143.762C172.906 140.111 173.631 137.109 174.18 134.581L171.999 131.223Z" fill="black"/>
<path d="M174.713 121.458C178.399 122.809 181.081 131.168 182.084 134.773L174.92 144.419C174.92 144.419 167.581 132.327 168.751 128.576C169.898 124.67 172.93 120.792 174.713 121.458Z" fill="#006C96"/>
<path opacity="0.7" d="M174.713 121.458C178.399 122.809 181.081 131.168 182.084 134.773L174.92 144.419C174.92 144.419 167.581 132.327 168.751 128.576C169.898 124.67 172.93 120.792 174.713 121.458Z" fill="white"/>
<path d="M177.102 90.5941C176.361 93.0855 173.122 94.0802 169.898 92.83C166.674 91.5797 164.636 88.5225 165.377 86.0311C166.117 83.5397 169.357 82.5449 172.541 83.8043C175.725 85.0637 177.834 88.1027 177.102 90.5941Z" fill="#263238"/>
<path d="M158.404 89.9092C156.748 96.699 155.92 99.5281 157.815 104.201C160.664 111.237 168.29 112.341 171.681 106.309C174.73 100.888 176.927 90.6941 172.055 85.5926C171.027 84.4535 169.758 83.6414 168.372 83.2365C166.987 82.8316 165.533 82.8478 164.155 83.2836C162.776 83.7195 161.521 84.5598 160.512 85.7217C159.504 86.8836 158.777 88.3269 158.404 89.9092V89.9092Z" fill="#B55B52"/>
<path d="M167.653 81.9787C165.265 83.5484 160.194 73.7196 153.898 81.9787C149.392 87.9015 152.266 96.5804 152.266 96.5804C152.266 96.5804 148.676 89.3434 145.81 92.8752C142.069 97.4382 145.938 113.765 158.276 112.642C170.614 111.52 169.42 100.039 169.42 100.039C169.42 100.039 175.199 93.3041 174.912 87.2627C174.697 82.7361 171.633 79.396 167.653 81.9787Z" fill="#263238"/>
<path d="M169.149 95.7404C168.841 97.0038 168.88 98.3453 169.26 99.5825C169.77 101.326 170.94 101.335 171.561 100.13C172.182 98.9254 172.524 96.8355 171.64 95.4301C170.757 94.0247 169.547 94.3441 169.149 95.7404Z" fill="#B55B52"/>
<path d="M159.996 161.531C159.996 161.531 157.337 172.099 153.922 186.043C151.654 195.334 149.043 206.121 146.663 216.278C145.302 222.091 144.02 227.695 142.914 232.705C136.657 261.041 105.454 285.399 105.454 285.399L99.4121 277.778C99.4121 277.778 120.379 257.537 126.476 231.099C138.79 177.428 131.865 168.375 141.68 157.47L159.996 161.531Z" fill="#263238"/>
<path opacity="0.2" d="M157.305 171.003C156.381 175.101 155.219 180.275 153.938 186.061C151.669 195.352 149.058 206.138 146.678 216.296C145.659 203.337 145.086 179.509 153.404 172.098C155.044 170.656 156.341 170.355 157.305 171.003Z" fill="black"/>
<path d="M105.972 286.493L98.4258 276.975L100.71 274.347L109.968 284.349L105.972 286.493Z" fill="#006C96"/>
<path opacity="0.7" d="M105.972 286.493L98.4258 276.975L100.71 274.347L109.968 284.349L105.972 286.493Z" fill="white"/>
<path d="M99.0446 293.721C98.9686 293.719 98.8935 293.704 98.8217 293.675C98.0814 293.365 97.6118 291.741 97.3968 290.801C97.3899 290.769 97.3915 290.735 97.4014 290.704C97.4114 290.673 97.4292 290.646 97.4526 290.627C97.4757 290.608 97.5036 290.598 97.5322 290.598C97.5608 290.598 97.5886 290.608 97.6118 290.627C97.8346 290.773 99.7928 292.087 99.8326 293.009C99.8392 293.11 99.822 293.21 99.7827 293.3C99.7435 293.39 99.6837 293.466 99.6097 293.52C99.4471 293.66 99.2475 293.731 99.0446 293.721ZM97.7789 291.12C98.1053 292.352 98.5192 293.183 98.9252 293.347C99.0119 293.378 99.1041 293.383 99.1931 293.362C99.2821 293.342 99.3652 293.295 99.4346 293.228C99.5381 293.146 99.546 293.064 99.5381 293.009C99.4983 292.535 98.551 291.677 97.7789 291.12Z" fill="#006C96"/>
<path d="M166.219 163.009C166.219 163.009 167.811 219.427 164.293 240.681C160.679 262.83 149.647 313.023 149.647 313.023L140.684 311.7C140.684 311.7 146.351 260.904 148.763 238.947C151.382 215 147.967 158.921 147.967 158.921L166.219 163.009Z" fill="#263238"/>
<path d="M151.575 313.653L138.799 311.763L138.95 308.277L152.856 308.971L151.575 313.653Z" fill="#006C96"/>
<path opacity="0.7" d="M151.575 313.653L138.799 311.763L138.95 308.277L152.856 308.971L151.575 313.653Z" fill="white"/>
<path d="M99.3468 291.513C98.6856 291.476 98.0403 291.267 97.4603 290.901C97.4386 290.886 97.4206 290.864 97.4081 290.839C97.3956 290.813 97.3889 290.785 97.3887 290.755C97.3922 290.726 97.4011 290.698 97.4148 290.672C97.4285 290.647 97.4468 290.626 97.4683 290.609C97.5399 290.609 99.0603 289.651 99.9359 290.025C100.046 290.071 100.145 290.143 100.228 290.238C100.31 290.333 100.374 290.447 100.413 290.573C100.466 290.694 100.481 290.832 100.456 290.965C100.432 291.097 100.369 291.216 100.278 291.303C99.9954 291.486 99.6689 291.559 99.3468 291.513V291.513ZM97.8583 290.774C98.5508 291.139 99.7608 291.339 100.095 291.038C100.151 290.983 100.207 290.901 100.095 290.691C100.072 290.611 100.032 290.537 99.9796 290.477C99.9271 290.417 99.8631 290.371 99.7926 290.345C99.1248 290.259 98.45 290.408 97.8583 290.774V290.774Z" fill="#006C96"/>
<path d="M150.11 322.806C149.455 322.79 148.802 322.704 148.16 322.55C148.13 322.546 148.101 322.531 148.08 322.506C148.058 322.481 148.044 322.448 148.041 322.413C148.036 322.378 148.041 322.343 148.056 322.312C148.07 322.28 148.093 322.255 148.12 322.24C148.407 322.067 150.922 320.616 151.671 321.099C151.742 321.144 151.802 321.21 151.844 321.29C151.886 321.371 151.908 321.462 151.909 321.555C151.925 321.708 151.907 321.862 151.857 322.004C151.807 322.146 151.726 322.271 151.623 322.368C151.176 322.704 150.643 322.858 150.11 322.806V322.806ZM148.654 322.313C150.023 322.578 151.042 322.505 151.432 322.121C151.499 322.054 151.55 321.969 151.582 321.873C151.614 321.778 151.625 321.675 151.615 321.574C151.617 321.537 151.61 321.5 151.595 321.468C151.579 321.435 151.556 321.409 151.527 321.391C151.121 321.136 149.688 321.747 148.654 322.313Z" fill="#006C96"/>
<path d="M148.191 322.56C148.162 322.569 148.132 322.569 148.103 322.56C148.082 322.543 148.065 322.519 148.053 322.492C148.042 322.465 148.037 322.435 148.04 322.405C148.04 322.277 148.35 319.192 149.854 319.375C150.252 319.421 150.372 319.649 150.396 319.84C150.507 320.644 149.003 322.195 148.246 322.578L148.191 322.56ZM149.735 319.667C148.843 319.667 148.485 321.355 148.374 322.085C149.17 321.556 150.173 320.342 150.109 319.859C150.109 319.859 150.109 319.704 149.823 319.676L149.735 319.667Z" fill="#006C96"/>
<path d="M141.528 155.726L140.04 158.017C139.928 158.199 140.103 158.445 140.39 158.509L166.539 164.314C166.762 164.314 166.968 164.314 167 164.122L167.597 161.621C167.597 161.457 167.462 161.256 167.215 161.202L141.966 155.598C141.89 155.575 141.809 155.574 141.733 155.596C141.656 155.619 141.586 155.663 141.528 155.726Z" fill="#006C96"/>
<path d="M144.458 159.705L143.781 159.55C143.646 159.55 143.558 159.423 143.582 159.331L144.378 156.092C144.378 156 144.537 155.946 144.665 155.973L145.341 156.128C145.477 156.128 145.572 156.256 145.548 156.347L144.752 159.587C144.72 159.705 144.593 159.705 144.458 159.705Z" fill="#263238"/>
<path d="M161.532 163.529L160.855 163.383C160.72 163.383 160.632 163.246 160.656 163.155L161.452 159.924C161.452 159.824 161.604 159.769 161.739 159.805L162.415 159.951C162.543 159.951 162.638 160.088 162.614 160.179L161.818 163.41C161.795 163.51 161.667 163.565 161.532 163.529Z" fill="#263238"/>
</svg>
