<svg width="398" height="297" viewBox="0 0 398 297" fill="none" xmlns="http://www.w3.org/2000/svg">
<path d="M398 260.61H0V260.809H398V260.61Z" fill="#E0E0E0"/>
<path d="M300.617 269.04H273.234V269.239H300.617V269.04Z" fill="#E0E0E0"/>
<path d="M88.3871 269.136H72.9766V269.335H88.3871V269.136Z" fill="#E0E0E0"/>
<path d="M199.796 268.674H168.561V268.873H199.796V268.674Z" fill="#E0E0E0"/>
<path d="M167.765 265.84H153.803V266.039H167.765V265.84Z" fill="#E0E0E0"/>
<path d="M337.95 265.943H295.77V266.142H337.95V265.943Z" fill="#E0E0E0"/>
<path d="M188.653 225.109H34.9532C33.7491 225.107 32.5951 224.627 31.7444 223.775C30.8938 222.923 30.416 221.768 30.416 220.564V4.50536C30.4265 3.3082 30.9089 2.16351 31.7584 1.31994C32.608 0.476373 33.756 0.0020508 34.9532 0H188.653C189.858 0 191.014 0.478864 191.867 1.33125C192.719 2.18363 193.198 3.33971 193.198 4.54516V220.564C193.198 221.769 192.719 222.925 191.867 223.778C191.014 224.63 189.858 225.109 188.653 225.109V225.109ZM34.9532 0.159201C33.8019 0.161309 32.6985 0.620136 31.8852 1.43497C31.0718 2.24981 30.615 3.35406 30.615 4.50536V220.564C30.615 221.715 31.0718 222.819 31.8852 223.634C32.6985 224.449 33.8019 224.908 34.9532 224.91H188.653C189.805 224.908 190.909 224.449 191.724 223.635C192.538 222.82 192.997 221.716 192.999 220.564V4.50536C192.997 3.35333 192.538 2.24909 191.724 1.43448C190.909 0.619877 189.805 0.161305 188.653 0.159201H34.9532Z" fill="#E0E0E0"/>
<path d="M360.835 225.109H207.127C205.922 225.107 204.768 224.627 203.916 223.775C203.064 222.923 202.584 221.768 202.582 220.564V4.50536C202.595 3.30747 203.079 2.16279 203.93 1.31944C204.78 0.476094 205.929 0.00202844 207.127 0H360.835C362.031 0.00414278 363.177 0.47939 364.024 1.32274C364.872 2.16608 365.354 3.30957 365.364 4.50536V220.564C365.364 221.766 364.887 222.92 364.038 223.772C363.189 224.624 362.037 225.105 360.835 225.109V225.109ZM207.127 0.159201C205.975 0.161305 204.871 0.619877 204.056 1.43448C203.242 2.24909 202.783 3.35333 202.781 4.50536V220.564C202.783 221.716 203.242 222.82 204.056 223.635C204.871 224.449 205.975 224.908 207.127 224.91H360.835C361.987 224.908 363.091 224.449 363.906 223.635C364.72 222.82 365.179 221.716 365.181 220.564V4.50536C365.179 3.35333 364.72 2.24909 363.906 1.43448C363.091 0.619877 361.987 0.161305 360.835 0.159201H207.127Z" fill="#E0E0E0"/>
<path d="M349.69 160.975C339.899 146.066 348.838 130.042 347.35 113.454C345.861 96.8651 330.1 93.2512 333.085 79.2257C336.54 62.9236 327.33 47.2822 316.895 47.2822C306.459 47.2822 297.257 62.8838 300.712 79.2018C303.697 93.2512 287.976 96.873 286.448 113.43C284.919 129.987 293.898 146.066 284.1 160.951C274.301 175.836 276.88 195.601 282.396 205.4C283.863 208 285.632 210.418 287.666 212.603C291.404 216.617 295.929 219.817 300.958 222.006C305.988 224.194 311.414 225.324 316.899 225.324C322.384 225.324 327.81 224.194 332.839 222.006C337.868 219.817 342.393 216.617 346.132 212.603C348.16 210.415 349.926 207.998 351.393 205.4C356.918 195.625 359.489 175.916 349.69 160.975Z" fill="#E0E0E0"/>
<path d="M316.896 172.286C317.547 172.286 318.19 172.414 318.791 172.663C319.392 172.912 319.938 173.277 320.397 173.736C320.857 174.196 321.222 174.742 321.471 175.343C321.719 175.943 321.848 176.587 321.848 177.237V260.61H311.945V177.237C311.945 176.587 312.073 175.943 312.322 175.343C312.571 174.742 312.936 174.196 313.395 173.736C313.855 173.277 314.401 172.912 315.002 172.663C315.602 172.414 316.246 172.286 316.896 172.286V172.286Z" fill="#F0F0F0"/>
<path d="M254.648 260.61H241.188V177.245C241.192 175.458 241.903 173.746 243.167 172.482C244.43 171.219 246.143 170.507 247.93 170.503V170.503C249.716 170.507 251.429 171.219 252.692 172.482C253.956 173.746 254.668 175.458 254.672 177.245L254.648 260.61Z" fill="#E0E0E0"/>
<path d="M247.906 238.123C270.841 238.123 289.434 219.531 289.434 196.596C289.434 173.661 270.841 155.068 247.906 155.068C224.971 155.068 206.379 173.661 206.379 196.596C206.379 219.531 224.971 238.123 247.906 238.123Z" fill="#F0F0F0"/>
<path d="M296.704 184.135C298.883 175.363 293.538 166.485 284.766 164.306C275.994 162.127 267.117 167.472 264.938 176.244C262.759 185.016 268.103 193.893 276.875 196.072C285.647 198.251 294.525 192.907 296.704 184.135Z" fill="#F0F0F0"/>
<path d="M223.875 172.055C224.735 166.774 221.152 161.796 215.871 160.936C210.59 160.076 205.612 163.66 204.752 168.941C203.892 174.221 207.476 179.199 212.757 180.059C218.037 180.919 223.015 177.336 223.875 172.055Z" fill="#F0F0F0"/>
<path d="M224.854 172.286C228.609 172.286 231.652 169.243 231.652 165.488C231.652 161.734 228.609 158.69 224.854 158.69C221.1 158.69 218.057 161.734 218.057 165.488C218.057 169.243 221.1 172.286 224.854 172.286Z" fill="#F0F0F0"/>
<path d="M162.384 210.852C155.927 211.814 149.756 214.169 144.299 217.753C144.251 211.449 143.097 205.471 140.136 200.639C135.631 205.025 131.977 210.709 128.992 216.822C127.902 205.368 124.885 194.224 118.206 187.163C108.201 193.459 103.043 203.951 100.591 215.063C96.5406 207.57 90.6617 201.223 83.5008 196.612C77.3795 203.059 75.4214 211.974 75.5885 221.112C68.6315 213.009 60.9103 206.689 53.3801 205.949C51.5254 218.756 55.4736 230.84 60.4964 240.392C63.7573 246.52 68.6289 251.643 74.5862 255.207C80.5434 258.771 87.3604 260.642 94.3025 260.618H127.01C140.948 260.618 154.018 253.183 160.554 240.869C164.685 233.068 166.659 223.031 162.384 210.852Z" fill="#E0E0E0"/>
<path d="M153.038 45.483C157.074 33.6464 153.834 25.2168 143.988 25.2168C137.795 25.2168 130.113 28.5361 122.631 33.933C121.787 30.8525 119.407 29.0137 115.578 29.0137C108.836 29.0137 99.547 34.7131 92.2636 42.7527C90.213 40.8044 87.4983 39.7089 84.6698 39.6881C78.2142 39.3219 70.4055 42.6014 63.6156 47.9267C63.2754 47.4505 62.8262 47.0626 62.3055 46.7953C61.7849 46.5281 61.2079 46.3893 60.6226 46.3904C56.9053 46.1834 51.8666 49.4948 49.3752 53.7773C49.2239 54.04 49.0886 54.3026 48.9453 54.5733H154.996C155.315 50.8321 154.654 47.7118 153.038 45.483Z" fill="#F0F0F0"/>
<path d="M153.365 117.354C155.34 111.575 153.771 107.46 148.948 107.46C145.915 107.46 142.166 109.052 138.512 111.719C138.315 110.976 137.86 110.327 137.229 109.89C136.597 109.452 135.83 109.254 135.065 109.331C131.778 109.331 127.241 112.117 123.675 116.049C122.675 115.094 121.348 114.558 119.965 114.552C116.781 114.369 113 115.969 109.681 118.572C109.52 118.342 109.307 118.153 109.06 118.02C108.812 117.887 108.537 117.815 108.256 117.808C106.441 117.704 103.982 119.32 102.764 121.414L102.549 121.796H154.353C154.569 120.245 154.219 118.668 153.365 117.354V117.354Z" fill="#F0F0F0"/>
<path d="M272.844 73.6219C272.436 73.5644 272.023 73.5352 271.611 73.5343C271.993 67.7633 269.788 64.0699 265.068 64.0699C261.669 64.0699 257.49 65.9962 253.239 69.2518C254.457 58.0441 250.557 50.7607 241.721 50.7607C234.605 50.7607 225.586 55.5367 216.679 63.2261C215.883 58.8322 213.272 56.1895 208.862 56.1895C201.117 56.1895 190.108 64.3405 181.281 75.8348C180.275 74.5093 178.985 73.426 177.505 72.6643C176.026 71.9026 174.395 71.4818 172.732 71.4329C165.361 70.9155 156.199 75.5959 148.056 83.2216C147.759 82.5786 147.288 82.0321 146.695 81.6449C146.102 81.2577 145.412 81.0455 144.704 81.0326C140.669 80.7461 135.152 84.9569 131.881 90.5846H279.332C282.795 82.0515 280.04 74.585 272.844 73.6219Z" fill="#F0F0F0"/>
<path d="M199.001 296.558C284.238 296.558 353.337 292.523 353.337 287.547C353.337 282.57 284.238 278.536 199.001 278.536C113.763 278.536 44.6641 282.57 44.6641 287.547C44.6641 292.523 113.763 296.558 199.001 296.558Z" fill="#F5F5F5"/>
<path d="M38.8926 76.0654L220.357 102.19L244.706 126.763L38.8926 76.0654Z" fill="#006C96"/>
<path opacity="0.6" d="M38.8926 76.0654L220.357 102.19L244.706 126.763L38.8926 76.0654Z" fill="white"/>
<path d="M38.8926 76.0654L220.357 102.19L211.935 137.724L38.8926 76.0654Z" fill="#006C96"/>
<path opacity="0.2" d="M38.8926 76.0654L220.357 102.19L211.935 137.724L38.8926 76.0654Z" fill="black"/>
<path d="M208.211 34.9287L218.742 84.2807C219.016 85.5694 218.767 86.9142 218.051 88.0199C217.335 89.1257 216.209 89.9022 214.921 90.1791L120.929 110.238C119.641 110.51 118.297 110.261 117.192 109.545C116.086 108.829 115.31 107.704 115.031 106.417L104.492 57.0655C104.22 55.7758 104.471 54.4311 105.188 53.3257C105.906 52.2203 107.032 51.4441 108.32 51.1671L202.312 31.1079C203.602 30.8364 204.946 31.0868 206.052 31.8043C207.157 32.5219 207.934 33.6482 208.211 34.9367V34.9287Z" fill="#006C96"/>
<path opacity="0.4" d="M208.211 34.9287L218.742 84.2807C219.016 85.5694 218.767 86.9142 218.051 88.0199C217.335 89.1257 216.209 89.9022 214.921 90.1791L120.929 110.238C119.641 110.51 118.297 110.261 117.192 109.545C116.086 108.829 115.31 107.704 115.031 106.417L104.492 57.0655C104.22 55.7758 104.471 54.4311 105.188 53.3257C105.906 52.2203 107.032 51.4441 108.32 51.1671L202.312 31.1079C203.602 30.8364 204.946 31.0868 206.052 31.8043C207.157 32.5219 207.934 33.6482 208.211 34.9367V34.9287Z" fill="black"/>
<path d="M205.894 31.6969L174.491 70.2471C171.579 73.8213 167.534 76.2942 163.025 77.2567C158.516 78.2193 153.814 77.6139 149.696 75.5405L105.287 53.173C106.006 52.1409 107.09 51.4209 108.32 51.1591L202.312 31.0999C203.538 30.8388 204.818 31.0521 205.894 31.6969V31.6969Z" fill="#006C96"/>
<path d="M38.8926 76.0654L188.564 111.639L211.935 137.724L38.8926 76.0654Z" fill="#006C96"/>
<path opacity="0.6" d="M38.8926 76.0654L188.564 111.639L211.935 137.724L38.8926 76.0654Z" fill="white"/>
<path d="M93.4902 110.354L93.0879 111.041L109.744 120.797L110.146 120.111L93.4902 110.354Z" fill="#006C96"/>
<path d="M117.498 124.412L117.096 125.099L123.085 128.607L123.487 127.92L117.498 124.412Z" fill="#006C96"/>
<path d="M38.8926 76.0654L188.564 111.639L159.471 146.702L38.8926 76.0654Z" fill="#006C96"/>
<path d="M239.087 159.407C238.885 159.407 238.685 159.369 238.498 159.295L214.124 149.648C213.734 149.491 213.422 149.186 213.256 148.799C213.09 148.413 213.084 147.977 213.238 147.586C213.393 147.195 213.696 146.881 214.081 146.713C214.466 146.544 214.902 146.535 215.294 146.687L239.676 156.334C240.021 156.471 240.307 156.723 240.486 157.048C240.664 157.373 240.724 157.75 240.654 158.115C240.584 158.479 240.389 158.807 240.103 159.043C239.817 159.279 239.458 159.408 239.087 159.407V159.407Z" fill="#006C96"/>
<path opacity="0.3" d="M239.087 159.407C238.885 159.407 238.685 159.369 238.498 159.295L214.124 149.648C213.734 149.491 213.422 149.186 213.256 148.799C213.09 148.413 213.084 147.977 213.238 147.586C213.393 147.195 213.696 146.881 214.081 146.713C214.466 146.544 214.902 146.535 215.294 146.687L239.676 156.334C240.021 156.471 240.307 156.723 240.486 157.048C240.664 157.373 240.724 157.75 240.654 158.115C240.584 158.479 240.389 158.807 240.103 159.043C239.817 159.279 239.458 159.408 239.087 159.407V159.407Z" fill="black"/>
<path d="M237.645 145.429C237.445 145.428 237.248 145.387 237.064 145.31L223.97 140.096C223.774 140.02 223.595 139.906 223.444 139.761C223.292 139.616 223.171 139.442 223.087 139.25C223.002 139.057 222.957 138.85 222.953 138.64C222.95 138.43 222.987 138.222 223.065 138.026C223.142 137.831 223.257 137.653 223.403 137.503C223.549 137.352 223.724 137.232 223.917 137.149C224.11 137.066 224.317 137.022 224.527 137.02C224.737 137.017 224.945 137.056 225.14 137.135L238.234 142.325C238.627 142.479 238.942 142.783 239.11 143.17C239.279 143.556 239.287 143.994 239.134 144.386C239.022 144.691 238.819 144.955 238.553 145.141C238.287 145.327 237.97 145.428 237.645 145.429Z" fill="#006C96"/>
<path opacity="0.5" d="M237.645 145.429C237.445 145.428 237.248 145.387 237.064 145.31L223.97 140.096C223.774 140.02 223.595 139.906 223.444 139.761C223.292 139.616 223.171 139.442 223.087 139.25C223.002 139.057 222.957 138.85 222.953 138.64C222.95 138.43 222.987 138.222 223.065 138.026C223.142 137.831 223.257 137.653 223.403 137.503C223.549 137.352 223.724 137.232 223.917 137.149C224.11 137.066 224.317 137.022 224.527 137.02C224.737 137.017 224.945 137.056 225.14 137.135L238.234 142.325C238.627 142.479 238.942 142.783 239.11 143.17C239.279 143.556 239.287 143.994 239.134 144.386C239.022 144.691 238.819 144.955 238.553 145.141C238.287 145.327 237.97 145.428 237.645 145.429Z" fill="white"/>
<path d="M210.271 159.2C210.072 159.197 209.875 159.16 209.69 159.088L185.913 149.648C185.717 149.572 185.539 149.458 185.387 149.313C185.235 149.167 185.114 148.994 185.03 148.801C184.946 148.609 184.901 148.402 184.897 148.192C184.893 147.982 184.931 147.773 185.008 147.578C185.085 147.383 185.2 147.205 185.346 147.054C185.493 146.904 185.667 146.783 185.86 146.701C186.053 146.618 186.26 146.574 186.47 146.571C186.68 146.569 186.889 146.608 187.083 146.687L210.86 156.095C211.205 156.232 211.491 156.484 211.67 156.809C211.849 157.134 211.908 157.511 211.838 157.876C211.768 158.24 211.574 158.568 211.287 158.804C211.001 159.04 210.642 159.169 210.271 159.168V159.2Z" fill="#006C96"/>
<path opacity="0.3" d="M210.271 159.2C210.072 159.197 209.875 159.16 209.69 159.088L185.913 149.648C185.717 149.572 185.539 149.458 185.387 149.313C185.235 149.167 185.114 148.994 185.03 148.801C184.946 148.609 184.901 148.402 184.897 148.192C184.893 147.982 184.931 147.773 185.008 147.578C185.085 147.383 185.2 147.205 185.346 147.054C185.493 146.904 185.667 146.783 185.86 146.701C186.053 146.618 186.26 146.574 186.47 146.571C186.68 146.569 186.889 146.608 187.083 146.687L210.86 156.095C211.205 156.232 211.491 156.484 211.67 156.809C211.849 157.134 211.908 157.511 211.838 157.876C211.768 158.24 211.574 158.568 211.287 158.804C211.001 159.04 210.642 159.169 210.271 159.168V159.2Z" fill="black"/>
<path d="M296.352 87.417C298.461 91.5323 300.396 95.6556 302.234 99.8744C304.073 104.093 305.785 108.368 307.281 112.849L307.822 114.545C307.918 114.847 308.053 115.341 308.133 115.691C308.212 116.041 308.284 116.439 308.324 116.773C308.506 118.058 308.599 119.353 308.602 120.65C308.614 123.042 308.503 125.433 308.268 127.814C307.824 132.423 307.101 137 306.103 141.521L301.733 141.036C301.677 136.554 301.637 132.025 301.478 127.607C301.407 125.41 301.279 123.205 301.056 121.136C300.955 120.164 300.796 119.199 300.579 118.246C300.539 118.023 300.475 117.856 300.428 117.673C300.38 117.49 300.332 117.426 300.252 117.187L299.647 115.683C297.984 111.655 296.113 107.596 294.203 103.552L288.424 91.4209L296.352 87.417Z" fill="#E4897B"/>
<path d="M301.796 139.635L299.758 143.448L306.269 145.262C306.269 145.262 307.511 142.198 306.03 139.778L301.796 139.635Z" fill="#E4897B"/>
<path d="M297.268 148.94L303.253 149.417L306.27 145.262L299.759 143.447L297.268 148.94Z" fill="#E4897B"/>
<path d="M268.946 59.9072C268.858 60.3768 268.532 60.7032 268.229 60.6395C267.927 60.5758 267.759 60.1539 267.855 59.6923C267.951 59.2306 268.269 58.8963 268.571 58.9599C268.874 59.0236 269.049 59.4455 268.946 59.9072Z" fill="#263238"/>
<path d="M268.579 60.7031C267.739 62.0054 266.724 63.1865 265.562 64.2135C265.834 64.5019 266.164 64.7281 266.531 64.8765C266.898 65.0249 267.292 65.092 267.688 65.0732L268.579 60.7031Z" fill="#DE5753"/>
<path d="M271.157 57.6866C271.082 57.6847 271.011 57.6533 270.958 57.5991C270.73 57.3375 270.443 57.1335 270.12 57.0035C269.798 56.8735 269.45 56.8212 269.104 56.8508C269.038 56.8515 268.974 56.8287 268.923 56.7866C268.872 56.7444 268.838 56.6856 268.827 56.6207C268.815 56.5557 268.827 56.4888 268.86 56.4318C268.893 56.3749 268.946 56.3315 269.008 56.3096C269.451 56.2535 269.9 56.3077 270.317 56.4674C270.734 56.6271 271.104 56.8873 271.396 57.225C271.447 57.277 271.476 57.3471 271.476 57.42C271.476 57.4929 271.447 57.5629 271.396 57.615C271.364 57.6442 271.326 57.6657 271.285 57.6781C271.244 57.6906 271.2 57.6935 271.157 57.6866Z" fill="#263238"/>
<path d="M282.111 66.4102C281.275 70.6926 280.439 78.5253 283.432 81.3829C283.432 81.3829 282.262 85.7211 274.31 85.7211C265.554 85.7211 270.139 81.3829 270.139 81.3829C274.915 80.2446 274.78 76.7024 273.952 73.3831L282.111 66.4102Z" fill="#E4897B"/>
<path d="M284.634 84.0823C285.262 81.9888 285.955 79.5928 284.522 78.8366C282.93 78.0406 274.278 77.165 271.293 78.7172C268.308 80.2694 269.159 84.528 269.159 84.528L284.634 84.0823Z" fill="#263238"/>
<path d="M302.99 282.58C302.743 282.613 302.491 282.596 302.251 282.53C302.01 282.465 301.785 282.352 301.589 282.198C301.52 282.102 301.482 281.986 301.482 281.867C301.482 281.749 301.52 281.633 301.589 281.537C301.635 281.455 301.697 281.383 301.773 281.327C301.848 281.27 301.935 281.231 302.027 281.211C302.886 281.02 304.494 282.118 304.566 282.166C304.587 282.183 304.603 282.205 304.612 282.23C304.622 282.256 304.625 282.283 304.622 282.309C304.617 282.335 304.605 282.359 304.586 282.377C304.568 282.396 304.544 282.408 304.518 282.413C304.016 282.521 303.504 282.577 302.99 282.58V282.58ZM302.258 281.465H302.09C302.037 281.477 301.986 281.5 301.942 281.533C301.898 281.566 301.862 281.608 301.836 281.657C301.708 281.879 301.788 281.975 301.836 282.007C302.083 282.341 303.277 282.341 304.152 282.198C303.582 281.821 302.935 281.577 302.258 281.481V281.465Z" fill="#006C96"/>
<path d="M304.488 282.437H304.424C303.819 282.103 302.649 280.845 302.768 280.176C302.789 280.073 302.844 279.98 302.925 279.913C303.007 279.847 303.109 279.81 303.214 279.81C303.319 279.799 303.425 279.809 303.526 279.839C303.627 279.869 303.721 279.919 303.803 279.985C304.48 280.543 304.599 282.23 304.599 282.302C304.602 282.327 304.598 282.352 304.587 282.375C304.575 282.398 304.557 282.417 304.535 282.429C304.52 282.435 304.504 282.438 304.488 282.437ZM303.31 280.049H303.278C303.095 280.049 303.079 280.16 303.071 280.192C302.999 280.582 303.747 281.546 304.344 281.999C304.304 281.334 304.066 280.697 303.66 280.168C303.606 280.127 303.545 280.096 303.479 280.078C303.414 280.06 303.345 280.056 303.278 280.065L303.31 280.049Z" fill="#006C96"/>
<path d="M267.88 282.581C267.131 282.581 266.407 282.477 266.16 282.143C266.098 282.054 266.064 281.949 266.064 281.84C266.064 281.732 266.098 281.626 266.16 281.538C266.209 281.456 266.273 281.385 266.35 281.329C266.426 281.273 266.513 281.233 266.606 281.211C267.569 280.949 269.623 282.111 269.71 282.159C269.734 282.174 269.752 282.195 269.764 282.221C269.775 282.246 269.779 282.274 269.774 282.302C269.769 282.33 269.756 282.356 269.736 282.376C269.716 282.396 269.691 282.409 269.663 282.413C269.075 282.524 268.478 282.58 267.88 282.581V282.581ZM266.948 281.45C266.861 281.438 266.773 281.438 266.686 281.45C266.63 281.461 266.577 281.484 266.53 281.517C266.483 281.55 266.444 281.592 266.415 281.641C266.312 281.816 266.351 281.896 266.415 281.944C266.678 282.31 268.158 282.334 269.257 282.183C268.541 281.796 267.757 281.553 266.948 281.466V281.45Z" fill="#006C96"/>
<path d="M269.645 282.437H269.589C268.881 282.126 267.488 280.845 267.591 280.2C267.591 280.041 267.727 279.85 268.109 279.81C268.251 279.788 268.396 279.798 268.534 279.84C268.671 279.881 268.798 279.952 268.905 280.049C269.653 280.654 269.804 282.23 269.812 282.301C269.815 282.326 269.812 282.35 269.802 282.373C269.792 282.395 269.776 282.414 269.757 282.429C269.74 282.438 269.721 282.443 269.702 282.445C269.682 282.446 269.663 282.443 269.645 282.437V282.437ZM268.22 280.049H268.133C267.886 280.049 267.87 280.176 267.862 280.208C267.798 280.606 268.754 281.601 269.454 282.031C269.385 281.362 269.107 280.732 268.658 280.232C268.544 280.133 268.402 280.075 268.252 280.065L268.22 280.049Z" fill="#006C96"/>
<path d="M276.078 282.294H270.228L269.646 268.754H275.497L276.078 282.294Z" fill="#E4897B"/>
<path d="M311.188 282.294H305.338L302.4 268.754H308.243L311.188 282.294Z" fill="#E4897B"/>
<path d="M304.925 281.617H311.492C311.609 281.618 311.722 281.659 311.813 281.732C311.904 281.806 311.968 281.909 311.993 282.023L313.147 287.221C313.174 287.348 313.171 287.478 313.14 287.604C313.109 287.729 313.049 287.846 312.967 287.946C312.884 288.045 312.78 288.125 312.663 288.178C312.545 288.232 312.417 288.259 312.288 288.256C309.995 288.216 308.881 288.081 305.991 288.081C304.216 288.081 300.554 288.272 298.095 288.272C295.635 288.272 295.325 285.884 296.328 285.621C300.833 284.634 302.529 283.273 303.969 281.983C304.231 281.747 304.572 281.616 304.925 281.617V281.617Z" fill="#263238"/>
<path d="M270.267 281.617H276.635C276.752 281.618 276.865 281.659 276.956 281.732C277.047 281.806 277.111 281.909 277.136 282.023L278.29 287.221C278.318 287.346 278.317 287.476 278.287 287.601C278.257 287.726 278.2 287.843 278.119 287.942C278.037 288.042 277.935 288.122 277.818 288.176C277.702 288.23 277.575 288.258 277.446 288.256C275.146 288.216 271.819 288.081 268.921 288.081C265.538 288.081 262.609 288.272 258.637 288.272C256.249 288.272 255.572 285.884 256.575 285.621C261.152 284.618 264.886 284.515 268.842 282.079C269.263 281.792 269.757 281.632 270.267 281.617V281.617Z" fill="#263238"/>
<path d="M267.456 91.6522C262.566 91.2733 257.701 90.6276 252.882 89.7179C250.494 89.2562 248.058 88.7388 245.638 88.0861C243.158 87.4513 240.722 86.6536 238.347 85.6981C237.734 85.4434 237.113 85.1648 236.5 84.9021C235.81 84.5622 235.145 84.1738 234.51 83.7399C233.364 82.9837 232.377 82.1957 231.398 81.4156C229.447 79.8236 227.64 78.2316 225.826 76.5998C222.267 73.3044 218.892 69.8975 215.637 66.3155L218.566 63.0439L230.116 71.3462C232.018 72.7154 233.945 74.0606 235.839 75.3262C236.778 75.9551 237.742 76.5441 238.625 77.0456C238.995 77.2563 239.378 77.4424 239.771 77.6028C240.241 77.7859 240.719 77.9689 241.22 78.1441C245.522 79.4688 249.922 80.4535 254.378 81.0893C258.923 81.8057 263.62 82.3947 268.157 82.8723L267.456 91.6522Z" fill="#E4897B"/>
<path d="M293.899 82.7044C299.384 83.9621 304.924 99.9856 304.924 99.9856L293.645 108.081C293.645 108.081 290.461 100.614 287.388 94.0872C284.172 87.2496 288.296 81.4228 293.899 82.7044Z" fill="#006C96"/>
<path opacity="0.4" d="M293.899 82.7044C299.384 83.9621 304.924 99.9856 304.924 99.9856L293.645 108.081C293.645 108.081 290.461 100.614 287.388 94.0872C284.172 87.2496 288.296 81.4228 293.899 82.7044Z" fill="black"/>
<path d="M290.741 91.4609L288.504 96.4678C290.82 101.467 292.938 106.418 293.503 107.739C293.423 101.825 292.301 94.4857 290.741 91.4609Z" fill="#006C96"/>
<path opacity="0.6" d="M290.741 91.4609L288.504 96.4678C290.82 101.467 292.938 106.418 293.503 107.739C293.423 101.825 292.301 94.4857 290.741 91.4609Z" fill="black"/>
<path d="M261.145 83.0074C261.145 83.0074 254.92 90.0361 260.795 133.553H292.069C292.292 128.777 289.275 105.327 293.9 82.7049C290.443 82.0392 286.947 81.5979 283.433 81.3836C279.005 81.1287 274.567 81.1287 270.14 81.3836C267.104 81.6895 264.096 82.2324 261.145 83.0074V83.0074Z" fill="#006C96"/>
<path opacity="0.4" d="M261.145 83.0074C261.145 83.0074 254.92 90.0361 260.795 133.553H292.069C292.292 128.777 289.275 105.327 293.9 82.7049C290.443 82.0392 286.947 81.5979 283.433 81.3836C279.005 81.1287 274.567 81.1287 270.14 81.3836C267.104 81.6895 264.096 82.2324 261.145 83.0074V83.0074Z" fill="black"/>
<path d="M258.829 91.4609C258.622 93.1087 258.463 95.0589 258.359 97.3593C261.448 96.4323 264.382 95.0536 267.068 93.2679L258.829 91.4609Z" fill="#006C96"/>
<path opacity="0.6" d="M258.829 91.4609C258.622 93.1087 258.463 95.0589 258.359 97.3593C261.448 96.4323 264.382 95.0536 267.068 93.2679L258.829 91.4609Z" fill="black"/>
<path d="M272.233 92.3363C268.046 96.0456 252.062 95.6715 252.062 95.6715L251.537 80.1973C256.935 80.9661 262.379 81.3597 267.831 81.3753C276.738 81.1923 276.802 88.2448 272.233 92.3363Z" fill="#006C96"/>
<path opacity="0.4" d="M272.233 92.3363C268.046 96.0456 252.062 95.6715 252.062 95.6715L251.537 80.1973C256.935 80.9661 262.379 81.3597 267.831 81.3753C276.738 81.1923 276.802 88.2448 272.233 92.3363Z" fill="black"/>
<path d="M218.718 63.0752L214.738 58.3867L210.447 63.1627C210.447 63.1627 213.09 67.6044 217.285 66.9039L218.718 63.0752Z" fill="#E4897B"/>
<path d="M209.038 52.918L207.494 59.0392L210.415 63.1306L214.706 58.3865L209.038 52.918Z" fill="#E4897B"/>
<path d="M269.646 268.762L269.949 275.735H275.8L275.497 268.762H269.646Z" fill="#CE6F64"/>
<path d="M308.251 268.762H302.4L303.913 275.735H309.763L308.251 268.762Z" fill="#CE6F64"/>
<path d="M273.163 54.1283C267.918 51.7403 266.262 41.1297 281.354 43.7803C281.354 43.7803 279.078 46.2957 283.694 47.8877C288.311 49.4797 284.451 59.3103 273.163 54.1283Z" fill="#263238"/>
<path d="M284.563 62.0883C283.059 67.6603 282.47 71.0513 278.991 73.3836C273.785 76.886 267.314 72.8662 267.107 66.92C266.924 61.5789 269.415 53.3084 275.425 52.1781C276.752 51.918 278.123 52.0021 279.408 52.4224C280.692 52.8427 281.848 53.5851 282.764 54.5789C283.681 55.5727 284.327 56.7847 284.642 58.0993C284.957 59.4138 284.93 60.7872 284.563 62.0883Z" fill="#E4897B"/>
<path d="M281.148 46.5664C284.722 48.5564 289.561 49.7504 289.108 52.5842C288.511 56.0468 292.029 53.8816 291.209 59.0318C290.676 62.3988 284.467 72.6036 280.065 72.11C273.49 71.314 274.326 61.3163 274.302 56.0468C274.286 52.9344 274.143 42.6421 281.148 46.5664Z" fill="#263238"/>
<path d="M273.514 51.0322C271.922 51.4063 269.813 60.5842 275.982 61.428C283.074 62.3911 273.514 51.0322 273.514 51.0322Z" fill="#263238"/>
<path d="M273.673 54.2875C271.723 54.4626 267.305 52.1144 267.846 48.5802C267.846 48.5563 270.64 52.7114 273.673 54.2875Z" fill="#263238"/>
<path d="M276.572 62.1599C275.973 63.4723 274.957 64.5498 273.682 65.2245C272.003 66.1001 271.056 64.8265 271.438 63.1389C271.78 61.6265 273.07 59.342 274.797 59.1589C276.524 58.9759 277.264 60.5679 276.572 62.1599Z" fill="#E4897B"/>
<path d="M285.326 55.7204C286.516 55.2042 287.559 54.401 288.362 53.3827C289.165 52.3644 289.702 51.1629 289.927 49.8857C289.927 49.8857 292.554 57.1851 285.326 55.7204Z" fill="#263238"/>
<path d="M291.965 55.601C291.411 55.2289 290.774 55 290.11 54.9348C289.446 54.8695 288.776 54.9698 288.16 55.2268C288.16 55.2268 290.612 52.0508 291.965 55.601Z" fill="#263238"/>
<path d="M271.891 133.553C271.891 133.553 278.529 178.241 282.167 194.981C286.147 213.289 301.191 274.39 301.191 274.39H311.898C311.898 274.39 301.987 214.793 299.711 196.612C297.243 176.911 292.069 133.521 292.069 133.521L271.891 133.553Z" fill="#006C96"/>
<path opacity="0.5" d="M271.891 133.553C271.891 133.553 278.529 178.241 282.167 194.981C286.147 213.289 301.191 274.39 301.191 274.39H311.898C311.898 274.39 301.987 214.793 299.711 196.612C297.243 176.911 292.069 133.521 292.069 133.521L271.891 133.553Z" fill="white"/>
<path d="M299.48 270.441C299.432 270.441 300.586 274.557 300.586 274.557H312.638L312.415 270.887L299.48 270.441Z" fill="#006C96"/>
<path opacity="0.1" d="M299.48 270.441C299.432 270.441 300.586 274.557 300.586 274.557H312.638L312.415 270.887L299.48 270.441Z" fill="black"/>
<path d="M276.085 149.473C283.758 150.977 282.946 179.594 282.023 194.312C279.81 183.908 276.57 163.888 274.357 149.68C274.893 149.416 275.502 149.343 276.085 149.473Z" fill="#006C96"/>
<path opacity="0.4" d="M276.085 149.473C283.758 150.977 282.946 179.594 282.023 194.312C279.81 183.908 276.57 163.888 274.357 149.68C274.893 149.416 275.502 149.343 276.085 149.473Z" fill="white"/>
<path d="M260.794 133.554C260.794 133.554 259.998 177.27 260.627 195.108C261.287 213.655 267.791 274.39 267.791 274.39H277.693C277.693 274.39 278.059 214.738 278.489 196.525C278.974 176.665 281.37 133.554 281.37 133.554H260.794Z" fill="#006C96"/>
<path opacity="0.5" d="M260.794 133.554C260.794 133.554 259.998 177.27 260.627 195.108C261.287 213.655 267.791 274.39 267.791 274.39H277.693C277.693 274.39 278.059 214.738 278.489 196.525C278.974 176.665 281.37 133.554 281.37 133.554H260.794Z" fill="white"/>
<path d="M269.846 267.273C269.822 267.273 269.799 267.264 269.781 267.248C269.763 267.232 269.752 267.209 269.75 267.185C267.999 250.374 263.884 209.698 263.382 195.107C262.849 180.214 263.334 146.798 263.494 136.912C263.494 136.887 263.504 136.862 263.522 136.844C263.54 136.826 263.564 136.816 263.589 136.816C263.615 136.816 263.64 136.826 263.66 136.844C263.679 136.862 263.691 136.886 263.693 136.912C263.533 146.798 263.048 180.214 263.581 195.1C264.099 209.69 268.214 250.35 269.949 267.161C269.949 267.188 269.94 267.215 269.922 267.235C269.905 267.256 269.88 267.269 269.854 267.273H269.846Z" fill="#006C96"/>
<path opacity="0.4" d="M269.846 267.273C269.822 267.273 269.799 267.264 269.781 267.248C269.763 267.232 269.752 267.209 269.75 267.185C267.999 250.374 263.884 209.698 263.382 195.107C262.849 180.214 263.334 146.798 263.494 136.912C263.494 136.887 263.504 136.862 263.522 136.844C263.54 136.826 263.564 136.816 263.589 136.816C263.615 136.816 263.64 136.826 263.66 136.844C263.679 136.862 263.691 136.886 263.693 136.912C263.533 146.798 263.048 180.214 263.581 195.1C264.099 209.69 268.214 250.35 269.949 267.161C269.949 267.188 269.94 267.215 269.922 267.235C269.905 267.256 269.88 267.269 269.854 267.273H269.846Z" fill="white"/>
<path d="M265.865 270.441C265.825 270.441 266.43 274.557 266.43 274.557H278.474L278.8 270.887L265.865 270.441Z" fill="#006C96"/>
<path opacity="0.1" d="M265.865 270.441C265.825 270.441 266.43 274.557 266.43 274.557H278.474L278.8 270.887L265.865 270.441Z" fill="black"/>
</svg>
